<?xml version="1.0" encoding="UTF-8"?>
<!DOCTYPE svg PUBLIC "-//W3C//DTD SVG 1.1//EN" "http://www.w3.org/Graphics/SVG/1.1/DTD/svg11.dtd">
<svg xmlns="http://www.w3.org/2000/svg" version="1.1" width="150px" height="50px" style="shape-rendering:geometricPrecision; text-rendering:geometricPrecision; image-rendering:optimizeQuality; fill-rule:evenodd; clip-rule:evenodd" xmlns:xlink="http://www.w3.org/1999/xlink">
<g><path style="opacity:1" fill="#fbfcfd" d="M -0.5,-0.5 C 49.5,-0.5 99.5,-0.5 149.5,-0.5C 149.5,16.1667 149.5,32.8333 149.5,49.5C 99.5,49.5 49.5,49.5 -0.5,49.5C -0.5,32.8333 -0.5,16.1667 -0.5,-0.5 Z"/></g>
<g><path style="opacity:1" fill="#2fabe0" d="M 10.5,1.5 C 13.9705,0.874834 16.8038,1.87483 19,4.5C 20.7743,7.71485 22.2743,11.0482 23.5,14.5C 24.7287,15.2811 26.062,15.7811 27.5,16C 24.6059,16.8686 23.4392,18.7019 24,21.5C 25.1131,22.7111 26.2798,22.7111 27.5,21.5C 28.5259,25.1488 30.8592,26.3154 34.5,25C 35.5728,23.6871 36.2395,22.1871 36.5,20.5C 34.4719,15.9408 31.9719,11.6075 29,7.5C 28.3162,6.21613 28.4829,5.04946 29.5,4C 40.7215,-1.57625 48.8881,1.25709 54,12.5C 55.1105,17.6111 54.1105,22.2777 51,26.5C 44.5,34.3333 37.3333,41.5 29.5,48C 27.0752,48.9859 25.4085,48.3193 24.5,46C 26.6673,39.0435 29.6673,33.0435 33.5,28C 30.1786,27.1872 27.1786,25.6872 24.5,23.5C 23.6305,29.8992 21.6305,35.8992 18.5,41.5C 18.1667,41 17.8333,40.5 17.5,40C 18.6043,36.2955 20.1043,32.7955 22,29.5C 22.8077,27.4213 22.641,25.4213 21.5,23.5C 19.43,28.2091 17.2634,32.8758 15,37.5C 9.91964,33.0906 5.58631,28.0906 2,22.5C 3.33067e-16,18.5 3.33067e-16,14.5 2,10.5C 4.3622,6.97345 7.19553,3.97345 10.5,1.5 Z"/></g>
<g><path style="opacity:1" fill="#262626" d="M 72.5,11.5 C 73.9305,11.4208 75.2638,11.7542 76.5,12.5C 79.1572,18.9485 77.3238,21.2818 71,19.5C 70.1329,16.4791 70.6329,13.8124 72.5,11.5 Z"/></g>
<g><path style="opacity:1" fill="#828282" d="M 91.5,12.5 C 89.631,14.6353 88.9644,17.3019 89.5,20.5C 88.5233,17.7131 88.19,14.7131 88.5,11.5C 89.791,11.2627 90.791,11.596 91.5,12.5 Z"/></g>
<g><path style="opacity:1" fill="#363636" d="M 98.5,11.5 C 99.7647,12.5145 100.431,14.0145 100.5,16C 100.167,17.5 99.8333,19 99.5,20.5C 98.5159,17.5719 98.1826,14.5719 98.5,11.5 Z"/></g>
<g><path style="opacity:1" fill="#202020" d="M 101.5,11.5 C 103.924,11.1924 106.257,11.5258 108.5,12.5C 107.675,13.3857 106.675,13.719 105.5,13.5C 105.167,22.8333 104.833,22.8333 104.5,13.5C 102.821,13.7148 101.821,13.0481 101.5,11.5 Z"/></g>
<g><path style="opacity:1" fill="#2d2d2d" d="M 109.5,11.5 C 110.765,12.5145 111.431,14.0145 111.5,16C 111.167,17.5 110.833,19 110.5,20.5C 109.516,17.5719 109.183,14.5719 109.5,11.5 Z"/></g>
<g><path style="opacity:1" fill="#080808" d="M 123.5,13.5 C 124.23,15.045 125.563,15.8784 127.5,16C 126.207,16.49 124.873,16.6567 123.5,16.5C 123.5,17.5 123.5,18.5 123.5,19.5C 128.5,20.0031 128.167,20.3364 122.5,20.5C 122.157,17.3467 122.49,15.0134 123.5,13.5 Z"/></g>
<g><path style="opacity:1" fill="#505050" d="M 123.5,13.5 C 122.49,15.0134 122.157,17.3467 122.5,20.5C 121.523,17.7131 121.19,14.7131 121.5,11.5C 123.604,11.2011 125.604,11.5344 127.5,12.5C 126.311,13.4287 124.978,13.762 123.5,13.5 Z"/></g>
<g><path style="opacity:1" fill="#e4e4e4" d="M 72.5,13.5 C 75.9103,13.3838 77.2436,15.0504 76.5,18.5C 74.8333,18.5 73.1667,18.5 71.5,18.5C 71.366,16.7085 71.6993,15.0418 72.5,13.5 Z"/></g>
<g><path style="opacity:1" fill="#262626" d="M 63.5,11.5 C 65.6648,11.1159 67.3315,11.7826 68.5,13.5C 67.1125,13.8072 65.4458,13.8072 63.5,13.5C 63.3398,15.1992 63.5065,16.8659 64,18.5C 65.7438,19.0302 67.2438,19.0302 68.5,18.5C 66.4232,21.1192 64.2565,21.1192 62,18.5C 61.1668,15.829 61.6668,13.4957 63.5,11.5 Z"/></g>
<g><path style="opacity:1" fill="#262626" d="M 84.5,19.5 C 83.2918,20.782 81.9584,20.782 80.5,19.5C 78.2721,13.578 80.1055,11.2446 86,12.5C 86.6667,13.1667 86.6667,13.8333 86,14.5C 84.6439,13.6198 83.1439,13.2865 81.5,13.5C 81.3398,15.1992 81.5065,16.8659 82,18.5C 82.6708,19.2524 83.5041,19.5858 84.5,19.5 Z"/></g>
<g><path style="opacity:1" fill="#222222" d="M 89.5,20.5 C 88.9644,17.3019 89.631,14.6353 91.5,12.5C 93.6132,17.9027 94.9465,17.5694 95.5,11.5C 96.8333,14.5 96.8333,17.5 95.5,20.5C 93.2822,19.0758 91.7822,17.0758 91,14.5C 90.8091,16.7078 90.3091,18.7078 89.5,20.5 Z"/></g>
<g><path style="opacity:1" fill="#262626" d="M 84.5,19.5 C 84.4606,18.4168 84.1272,17.4168 83.5,16.5C 84.325,15.6143 85.325,15.281 86.5,15.5C 86.6602,17.1992 86.4935,18.8659 86,20.5C 85.6174,19.944 85.1174,19.6107 84.5,19.5 Z"/></g>
<g><path style="opacity:1" fill="#232323" d="M 118.5,11.5 C 119.376,11.3691 120.043,11.7025 120.5,12.5C 119.722,15.5395 118.388,18.2062 116.5,20.5C 115.024,18.5799 114.024,16.4133 113.5,14C 113.548,12.967 113.881,12.6337 114.5,13C 116.77,18.8496 118.104,18.3496 118.5,11.5 Z"/></g>
<g><path style="opacity:1" fill="#4a9de9" d="M 70.5,28.5 C 78.0615,27.8596 80.0615,30.693 76.5,37C 74.5273,37.4955 72.5273,37.6621 70.5,37.5C 70.5,34.5 70.5,31.5 70.5,28.5 Z"/></g>
<g><path style="opacity:1" fill="#1987e5" d="M 81.5,30.5 C 82.2297,32.045 83.563,32.8784 85.5,33C 84.2068,33.49 82.8734,33.6567 81.5,33.5C 81.5,34.5 81.5,35.5 81.5,36.5C 86.5,37.0031 86.1667,37.3364 80.5,37.5C 80.1569,34.3467 80.4902,32.0134 81.5,30.5 Z"/></g>
<g><path style="opacity:1" fill="#67afed" d="M 81.5,30.5 C 80.4902,32.0134 80.1569,34.3467 80.5,37.5C 79.5233,34.7131 79.19,31.7131 79.5,28.5C 81.604,28.2011 83.604,28.5344 85.5,29.5C 84.3112,30.4287 82.9778,30.762 81.5,30.5 Z"/></g>
<g><path style="opacity:1" fill="#f7fafe" d="M 72.5,30.5 C 75.9103,30.3838 77.2436,32.0504 76.5,35.5C 75.1667,35.5 73.8333,35.5 72.5,35.5C 72.5,33.8333 72.5,32.1667 72.5,30.5 Z"/></g>
<g><path style="opacity:1" fill="#469ae9" d="M 97.5,28.5 C 103.643,29.0262 104.976,31.8595 101.5,37C 95.9202,38.261 94.0868,36.0943 96,30.5C 96.7172,29.9558 97.2172,29.2891 97.5,28.5 Z"/></g>
<g><path style="opacity:1" fill="#f6fafe" d="M 97.5,30.5 C 98.8333,30.5 100.167,30.5 101.5,30.5C 101.5,32.1667 101.5,33.8333 101.5,35.5C 100.167,35.5 98.8333,35.5 97.5,35.5C 97.5,33.8333 97.5,32.1667 97.5,30.5 Z"/></g>
<g><path style="opacity:1" fill="#3e96e8" d="M 113.5,28.5 C 119.261,28.87 119.594,29.87 114.5,31.5C 115.689,32.4287 117.022,32.762 118.5,32.5C 118.5,34.1667 118.5,35.8333 118.5,37.5C 116.25,37.8186 114.25,37.3186 112.5,36C 118.672,36.1369 118.839,34.9703 113,32.5C 112.421,31.0715 112.588,29.7382 113.5,28.5 Z"/></g>
<g><path style="opacity:1" fill="#6eaced" d="M 104.5,28.5 C 106.792,28.2436 108.959,28.5769 111,29.5C 112.238,32.9257 111.071,34.5923 107.5,34.5C 107.5,35.5 107.5,36.5 107.5,37.5C 106.5,37.5 105.5,37.5 104.5,37.5C 104.5,34.5 104.5,31.5 104.5,28.5 Z"/></g>
<g><path style="opacity:1" fill="#489ae9" d="M 86.5,28.5 C 88.5159,29.4859 89.8492,31.1526 90.5,33.5C 91.3567,32.2643 92.0234,30.931 92.5,29.5C 93.1667,28.1667 93.8333,28.1667 94.5,29.5C 91.1818,40.2049 88.5151,39.8716 86.5,28.5 Z"/></g>
</svg>
