<?xml version="1.0" encoding="UTF-8"?>
<!DOCTYPE svg PUBLIC "-//W3C//DTD SVG 1.1//EN" "http://www.w3.org/Graphics/SVG/1.1/DTD/svg11.dtd">
<svg xmlns="http://www.w3.org/2000/svg" version="1.1" width="122px" height="40px" style="shape-rendering:geometricPrecision; text-rendering:geometricPrecision; image-rendering:optimizeQuality; fill-rule:evenodd; clip-rule:evenodd" xmlns:xlink="http://www.w3.org/1999/xlink">
<g><path style="opacity:1" fill="#fbfcfd" d="M -0.5,-0.5 C 40.1667,-0.5 80.8333,-0.5 121.5,-0.5C 121.5,12.8333 121.5,26.1667 121.5,39.5C 80.8333,39.5 40.1667,39.5 -0.5,39.5C -0.5,26.1667 -0.5,12.8333 -0.5,-0.5 Z"/></g>
<g><path style="opacity:1" fill="#33ace1" d="M 24.5,22.5 C 25.404,21.791 25.7373,20.791 25.5,19.5C 26.6946,19.1344 27.3613,18.301 27.5,17C 25.696,13.8914 24.0293,10.7247 22.5,7.5C 27.5072,2.04991 32.3406,2.38325 37,8.5C 38.4833,11.7024 38.8166,15.0357 38,18.5C 33.8539,23.9473 29.3539,29.1139 24.5,34C 22.8659,34.4935 21.1992,34.6602 19.5,34.5C 20.6483,30.2132 22.315,26.2132 24.5,22.5 Z"/></g>
<g><path style="opacity:1" fill="#2fabe0" d="M 19.5,17.5 C 16.9204,19.8207 15.2538,22.8207 14.5,26.5C 14.0431,27.2975 13.3764,27.6309 12.5,27.5C 9.44739,24.6096 6.94739,21.2762 5,17.5C 3.42897,9.43004 6.59564,5.26338 14.5,5C 17.6354,8.57155 19.302,12.7382 19.5,17.5 Z"/></g>
<g><path style="opacity:1" fill="#878787" d="M 61.5,24.5 C 63.924,24.1924 66.2573,24.5258 68.5,25.5C 67.9588,27.5352 67.2922,29.5352 66.5,31.5C 65.1667,24.8333 63.8333,24.8333 62.5,31.5C 61.5258,29.2573 61.1924,26.924 61.5,24.5 Z"/></g>
<g><path style="opacity:1" fill="#b3ddf2" d="M 19.5,17.5 C 21.5,18.1667 23.5,18.8333 25.5,19.5C 25.7373,20.791 25.404,21.791 24.5,22.5C 23.2347,21.5207 21.9014,20.5207 20.5,19.5C 19.0934,23.3112 17.4267,26.9779 15.5,30.5C 14.452,29.452 13.452,28.452 12.5,27.5C 13.3764,27.6309 14.0431,27.2975 14.5,26.5C 15.2538,22.8207 16.9204,19.8207 19.5,17.5 Z"/></g>
<g><path style="opacity:1" fill="#424242" d="M 37.5,25.5 C 41.8383,25.6219 42.1716,25.9553 38.5,26.5C 38.5,27.5 38.5,28.5 38.5,29.5C 39.675,29.281 40.675,29.6143 41.5,30.5C 40.3493,31.731 39.1827,31.731 38,30.5C 37.5065,28.8659 37.3398,27.1992 37.5,25.5 Z"/></g>
<g><path style="opacity:1" fill="#272727" d="M 58.5,28.5 C 56.9081,27.3984 56.0748,28.065 56,30.5C 55.2025,28.7412 55.3691,27.0745 56.5,25.5C 57.9185,26.0047 58.5852,27.0047 58.5,28.5 Z"/></g>
<g><path style="opacity:1" fill="#0e0e0e" d="M 58.5,28.5 C 59.2679,27.7375 59.7679,26.7375 60,25.5C 60.7975,27.2588 60.6309,28.9255 59.5,30.5C 58.7025,30.0431 58.3691,29.3764 58.5,28.5 Z"/></g>
<g><path style="opacity:1" fill="#5ba7ec" d="M 84.5,25.5 C 86.1667,25.5 87.8333,25.5 89.5,25.5C 89.7852,27.288 89.4519,28.9547 88.5,30.5C 88.4464,29.3131 88.1131,27.9798 87.5,26.5C 85.5981,31.7064 84.5981,31.373 84.5,25.5 Z"/></g>
<g><path style="opacity:1" fill="#59a4eb" d="M 101.5,25.5 C 103.167,25.5 104.833,25.5 106.5,25.5C 106.66,27.1992 106.494,28.8659 106,30.5C 104.667,31.8333 103.333,31.8333 102,30.5C 101.506,28.8659 101.34,27.1992 101.5,25.5 Z"/></g>
<g><path style="opacity:1" fill="#3c3c3c" d="M 71.5,26.5 C 71.56,25.9569 71.8933,25.6236 72.5,25.5C 73.4865,29.375 74.6532,29.375 76,25.5C 75.6189,31.7313 74.1189,32.0646 71.5,26.5 Z"/></g>
<g><path style="opacity:1" fill="#f3f8fd" d="M 102.5,26.5 C 103.5,26.5 104.5,26.5 105.5,26.5C 105.5,27.5 105.5,28.5 105.5,29.5C 104.5,29.5 103.5,29.5 102.5,29.5C 102.5,28.5 102.5,27.5 102.5,26.5 Z"/></g>
<g><path style="opacity:1" fill="#5ea6ec" d="M 95.5,25.5 C 96.9311,25.8807 97.7645,26.8807 98,28.5C 98.4186,27.3279 99.0853,26.3279 100,25.5C 98.8648,33.4449 97.3648,33.4449 95.5,25.5 Z"/></g>
<g><path style="opacity:1" fill="#6aafee" d="M 107.5,25.5 C 110.518,25.3354 113.518,25.502 116.5,26C 115.833,26.3333 115.167,26.6667 114.5,27C 117.124,27.5764 117.791,28.9098 116.5,31C 112.19,31.0659 111.856,30.3993 115.5,29C 112.95,27.4399 110.617,27.9399 108.5,30.5C 107.548,28.9547 107.215,27.288 107.5,25.5 Z"/></g>
<g><path style="opacity:1" fill="#5e5e5e" d="M 43.5,25.5 C 49.1755,25.8597 49.8421,27.8597 45.5,31.5C 42.6095,30.1627 41.9428,28.1627 43.5,25.5 Z"/></g>
<g><path style="opacity:1" fill="#fefffe" d="M 44.5,26.5 C 46.4646,26.9483 46.7979,27.9483 45.5,29.5C 44.6143,28.675 44.281,27.675 44.5,26.5 Z"/></g>
<g><path style="opacity:1" fill="#686868" d="M 49.5,25.5 C 55.1667,25.6636 55.5,25.9969 50.5,26.5C 50.281,27.675 50.6143,28.675 51.5,29.5C 52.6956,29.1543 52.6956,28.6543 51.5,28C 52.448,27.5172 53.448,27.3505 54.5,27.5C 54.5,28.8333 54.5,30.1667 54.5,31.5C 50.0917,31.938 48.4251,29.938 49.5,25.5 Z"/></g>
<g><path style="opacity:1" fill="#696969" d="M 77.5,25.5 C 78.8734,25.3433 80.2068,25.51 81.5,26C 78.8333,26.6667 78.8333,27.3333 81.5,28C 79.0087,28.6259 79.0087,29.4593 81.5,30.5C 80.3112,31.4287 78.9778,31.762 77.5,31.5C 77.5,29.5 77.5,27.5 77.5,25.5 Z"/></g>
<g><path style="opacity:1" fill="#7ab8ef" d="M 90.5,25.5 C 91.8734,25.3433 93.2068,25.51 94.5,26C 91.8333,26.6667 91.8333,27.3333 94.5,28C 92.0087,28.6259 92.0087,29.4593 94.5,30.5C 93.3112,31.4287 91.9778,31.762 90.5,31.5C 90.5,29.5 90.5,27.5 90.5,25.5 Z"/></g>
</svg>
