<?xml version="1.0" encoding="UTF-8"?>
<!DOCTYPE svg PUBLIC "-//W3C//DTD SVG 1.1//EN" "http://www.w3.org/Graphics/SVG/1.1/DTD/svg11.dtd">
<svg xmlns="http://www.w3.org/2000/svg" version="1.1" width="712px" height="641px" style="shape-rendering:geometricPrecision; text-rendering:geometricPrecision; image-rendering:optimizeQuality; fill-rule:evenodd; clip-rule:evenodd" xmlns:xlink="http://www.w3.org/1999/xlink">
<g><path style="opacity:1" fill="#fefefe" d="M -0.5,-0.5 C 236.833,-0.5 474.167,-0.5 711.5,-0.5C 711.5,213.167 711.5,426.833 711.5,640.5C 474.167,640.5 236.833,640.5 -0.5,640.5C -0.5,426.833 -0.5,213.167 -0.5,-0.5 Z"/></g>
<g><path style="opacity:1" fill="#87cfee" d="M 487.5,20.5 C 482.731,21.889 477.731,22.5557 472.5,22.5C 477.269,21.111 482.269,20.4443 487.5,20.5 Z"/></g>
<g><path style="opacity:1" fill="#ceebf8" d="M 552.5,26.5 C 557.165,27.0569 561.498,28.3902 565.5,30.5C 560.835,29.9431 556.502,28.6098 552.5,26.5 Z"/></g>
<g><path style="opacity:1" fill="#26a9e0" d="M 487.5,20.5 C 509.519,19.269 531.186,21.269 552.5,26.5C 556.502,28.6098 560.835,29.9431 565.5,30.5C 631.389,58.2398 673.222,106.906 691,176.5C 703.784,240.876 689.784,298.543 649,349.5C 585.297,418.867 521.964,488.534 459,558.5C 444.737,573.767 429.571,587.934 413.5,601C 401.071,610.047 387.405,616.714 372.5,621C 362.545,622.498 352.545,622.831 342.5,622C 330.737,619.092 320.07,614.092 310.5,607C 328.073,563.29 346.239,519.79 365,476.5C 378.892,446.361 396.059,418.361 416.5,392.5C 415.833,392.167 415.167,391.833 414.5,391.5C 403.636,394.12 392.636,395.286 381.5,395C 399.299,388.434 415.966,379.768 431.5,369C 437.647,363.116 436.647,359.116 428.5,357C 421.842,356.5 415.175,356.334 408.5,356.5C 400.883,355.118 393.217,353.452 385.5,351.5C 380.735,349.618 376.068,347.452 371.5,345C 357.414,332.244 342.748,320.244 327.5,309C 321.779,305.473 315.779,302.473 309.5,300C 303.765,299.41 301.432,302.077 302.5,308C 307.809,331.009 308.642,354.176 305,377.5C 303.667,384.167 302.333,390.833 301,397.5C 282.701,447.421 263.867,497.088 244.5,546.5C 237.899,538.976 231.065,531.643 224,524.5C 223.362,523.391 222.862,522.225 222.5,521C 229.696,504.774 237.03,488.607 244.5,472.5C 243.635,471.417 242.635,471.251 241.5,472C 236.966,474.934 232.3,477.267 227.5,479C 243.573,464.338 257.407,447.838 269,429.5C 273.06,422.05 276.56,414.383 279.5,406.5C 282.324,402.37 283.991,397.703 284.5,392.5C 291.246,367.563 293.246,342.229 290.5,316.5C 290.5,313.833 290.5,311.167 290.5,308.5C 286.511,308.116 282.845,308.783 279.5,310.5C 271.305,313.192 265.472,318.526 262,326.5C 257.221,349.618 250.888,372.285 243,394.5C 229.178,428.61 214.178,462.277 198,495.5C 152.333,445.167 106.667,394.833 61,344.5C 23.7955,294.326 11.1288,238.326 23,176.5C 39.914,109.464 79.7473,61.6311 142.5,33C 174.521,18.2262 203.188,22.8929 228.5,47C 236.762,55.9251 244.262,65.4251 251,75.5C 259.13,89.4269 266.463,103.76 273,118.5C 283.184,143.866 292.517,169.533 301,195.5C 303.347,202.366 306.847,208.532 311.5,214C 312.833,214.167 314.167,214.333 315.5,214.5C 323.784,212.24 332.118,210.074 340.5,208C 346.09,206.581 351.757,205.748 357.5,205.5C 360.059,205.198 362.393,205.532 364.5,206.5C 342.777,210.773 324.61,221.106 310,237.5C 299.729,253.457 300.062,269.124 311,284.5C 321.804,293.888 333.971,296.055 347.5,291C 354.639,287.358 360.305,282.191 364.5,275.5C 365.096,276.935 365.096,278.602 364.5,280.5C 363.31,285.571 361.81,290.571 360,295.5C 358.896,301.226 359.896,306.56 363,311.5C 385.572,340.186 412.405,345.02 443.5,326C 464.816,308.185 474.149,285.351 471.5,257.5C 471.277,253.838 470.277,250.505 468.5,247.5C 464.046,235.434 456.379,225.934 445.5,219C 433.905,212.301 421.571,207.468 408.5,204.5C 413.975,203.511 419.642,203.178 425.5,203.5C 428.167,203.5 430.833,203.5 433.5,203.5C 433.66,201.801 433.494,200.134 433,198.5C 419.698,172.554 404.032,148.221 386,125.5C 378.701,115.237 372.701,104.237 368,92.5C 363.651,79.9224 366.484,69.4224 376.5,61C 393.74,49.7134 412.073,40.5467 431.5,33.5C 435.915,33.1394 439.915,31.8061 443.5,29.5C 452.879,26.0722 462.545,23.7388 472.5,22.5C 477.731,22.5557 482.731,21.889 487.5,20.5 Z"/></g>
<g><path style="opacity:1" fill="#a4daf2" d="M 290.5,316.5 C 289.532,314.393 289.198,312.059 289.5,309.5C 286.14,309.616 282.807,309.949 279.5,310.5C 282.845,308.783 286.511,308.116 290.5,308.5C 290.5,311.167 290.5,313.833 290.5,316.5 Z"/></g>
<g><path style="opacity:1" fill="#7ccaec" d="M 364.5,280.5 C 365.096,278.602 365.096,276.935 364.5,275.5C 364.795,273.577 365.628,271.91 367,270.5C 367.406,274.21 366.572,277.544 364.5,280.5 Z"/></g>
<g><path style="opacity:1" fill="#bce4f5" d="M 468.5,247.5 C 470.277,250.505 471.277,253.838 471.5,257.5C 469.723,254.495 468.723,251.162 468.5,247.5 Z"/></g>
<g><path style="opacity:1" fill="#a7dcf2" d="M 357.5,205.5 C 360.976,204.357 364.642,204.19 368.5,205C 367.255,205.791 365.922,206.291 364.5,206.5C 362.393,205.532 360.059,205.198 357.5,205.5 Z"/></g>
<g><path style="opacity:1" fill="#7acaec" d="M 425.5,203.5 C 419.642,203.178 413.975,203.511 408.5,204.5C 406.897,204.688 405.563,204.188 404.5,203C 411.679,202.179 418.679,202.345 425.5,203.5 Z"/></g>
<g><path style="opacity:1" fill="#68c1e9" d="M 443.5,29.5 C 439.915,31.8061 435.915,33.1394 431.5,33.5C 435.085,31.1939 439.085,29.8606 443.5,29.5 Z"/></g>
<g><path style="opacity:1" fill="#82cbed" d="M 385.5,351.5 C 393.217,353.452 400.883,355.118 408.5,356.5C 400.323,356.643 392.656,354.976 385.5,351.5 Z"/></g>
<g><path style="opacity:1" fill="#7dc9ec" d="M 284.5,392.5 C 283.991,397.703 282.324,402.37 279.5,406.5C 280.796,401.607 282.462,396.94 284.5,392.5 Z"/></g>
</svg>
